REM DIRINDEX 1\2,1\3,1\4,1\5
REM DIRNAME "folder01","folder02","folder03","folder04","folder05"
TITLE ""
FILE "1Q_t_1439-1448.mp3" MP3
  TRACK 01 AUDIO
    TITLE "3:cjc172_5297"
    INDEX 01 00:00:00
  TRACK 02 AUDIO
    TITLE "0:"
    INDEX 01 00:01:14
  TRACK 03 AUDIO
    TITLE "4:cjc172_5298"
    INDEX 01 00:01:25
  TRACK 04 AUDIO
    TITLE "0:"
    INDEX 01 00:03:50
  TRACK 05 AUDIO
    TITLE "5:cjc172_5299"
    INDEX 01 00:03:58
  TRACK 06 AUDIO
    TITLE "0:"
    INDEX 01 00:08:65
  TRACK 07 AUDIO
    TITLE "3:cjc172_5300"
    INDEX 01 00:09:37
  TRACK 08 AUDIO
    TITLE "0:"
    INDEX 01 00:10:52
  TRACK 09 AUDIO
    TITLE "4:cjc172_5301"
    INDEX 01 00:10:58
  TRACK 10 AUDIO
    TITLE "0:"
    INDEX 01 00:13:17
  TRACK 11 AUDIO
    TITLE "5:cjc172_5302"
    INDEX 01 00:13:23
  TRACK 12 AUDIO
    TITLE "0:"
    INDEX 01 00:17:54
  TRACK 13 AUDIO
    TITLE "3:cjc172_5303"
    INDEX 01 00:18:24
  TRACK 14 AUDIO
    TITLE "0:"
    INDEX 01 00:19:41
  TRACK 15 AUDIO
    TITLE "4:cjc172_5304"
    INDEX 01 00:19:51
  TRACK 16 AUDIO
    TITLE "0:"
    INDEX 01 00:21:59
  TRACK 17 AUDIO
    TITLE "5:cjc172_5305"
    INDEX 01 00:21:65
  TRACK 18 AUDIO
    TITLE "0:"
    INDEX 01 00:27:35
  TRACK 19 AUDIO
    TITLE "3:cjc172_5306"
    INDEX 01 00:28:03
  TRACK 20 AUDIO
    TITLE "0:"
    INDEX 01 00:29:34
  TRACK 21 AUDIO
    TITLE "4:cjc172_5307"
    INDEX 01 00:29:39
  TRACK 22 AUDIO
    TITLE "0:"
    INDEX 01 00:30:51
  TRACK 23 AUDIO
    TITLE "5:cjc172_5308"
    INDEX 01 00:30:56
  TRACK 24 AUDIO
    TITLE "0:"
    INDEX 01 00:36:06
  TRACK 25 AUDIO
    TITLE "3:cjc172_5309"
    INDEX 01 00:36:51
  TRACK 26 AUDIO
    TITLE "0:"
    INDEX 01 00:37:55
  TRACK 27 AUDIO
    TITLE "4:cjc172_5310"
    INDEX 01 00:37:64
  TRACK 28 AUDIO
    TITLE "0:"
    INDEX 01 00:38:64
  TRACK 29 AUDIO
    TITLE "5:cjc172_5311"
    INDEX 01 00:38:70
  TRACK 30 AUDIO
    TITLE "0:"
    INDEX 01 00:42:75
  TRACK 31 AUDIO
    TITLE "3:cjc172_5312"
    INDEX 01 00:43:45
  TRACK 32 AUDIO
    TITLE "0:"
    INDEX 01 00:44:60
  TRACK 33 AUDIO
    TITLE "4:cjc172_5313"
    INDEX 01 00:44:64
  TRACK 34 AUDIO
    TITLE "0:"
    INDEX 01 00:45:70
  TRACK 35 AUDIO
    TITLE "5:cjc172_5314"
    INDEX 01 00:46:03
  TRACK 36 AUDIO
    TITLE "0:"
    INDEX 01 00:50:40
  TRACK 37 AUDIO
    TITLE "3:cjc172_5315"
    INDEX 01 00:51:08
  TRACK 38 AUDIO
    TITLE "0:"
    INDEX 01 00:52:05
  TRACK 39 AUDIO
    TITLE "4:cjc172_5316"
    INDEX 01 00:52:13
  TRACK 40 AUDIO
    TITLE "0:"
    INDEX 01 00:53:54
  TRACK 41 AUDIO
    TITLE "5:cjc172_5317"
    INDEX 01 00:53:59
  TRACK 42 AUDIO
    TITLE "0:"
    INDEX 01 00:57:73
  TRACK 43 AUDIO
    TITLE "3:cjc172_5318"
    INDEX 01 00:58:43
  TRACK 44 AUDIO
    TITLE "0:"
    INDEX 01 00:59:35
  TRACK 45 AUDIO
    TITLE "4:cjc172_5319"
    INDEX 01 00:59:44
  TRACK 46 AUDIO
    TITLE "0:"
    INDEX 01 01:00:48
  TRACK 47 AUDIO
    TITLE "5:cjc172_5320"
    INDEX 01 01:00:56
  TRACK 48 AUDIO
    TITLE "0:"
    INDEX 01 01:05:23
  TRACK 49 AUDIO
    TITLE "3:cjc172_5321"
    INDEX 01 01:05:70
  TRACK 50 AUDIO
    TITLE "0:"
    INDEX 01 01:07:09
  TRACK 51 AUDIO
    TITLE "4:cjc172_5322"
    INDEX 01 01:07:16
  TRACK 52 AUDIO
    TITLE "0:"
    INDEX 01 01:11:22
  TRACK 53 AUDIO
    TITLE "5:cjc172_5323"
    INDEX 01 01:11:28
  TRACK 54 AUDIO
    TITLE "0:"
    INDEX 01 01:17:05
  TRACK 55 AUDIO
    TITLE "3:cjc172_5324"
    INDEX 01 01:17:48
  TRACK 56 AUDIO
    TITLE "0:"
    INDEX 01 01:18:55
  TRACK 57 AUDIO
    TITLE "4:cjc172_5325"
    INDEX 01 01:18:61
  TRACK 58 AUDIO
    TITLE "0:"
    INDEX 01 01:19:59
  TRACK 59 AUDIO
    TITLE "5:cjc172_5326"
    INDEX 01 01:19:67
  TRACK 60 AUDIO
    TITLE "0:"
    INDEX 01 01:25:44
